<?xml version="1.0" encoding="UTF-8"?>
<svg xmlns="http://www.w3.org/2000/svg" xmlns:xlink="http://www.w3.org/1999/xlink" width="50px" height="50px" viewBox="0 0 50 50" version="1.1">
<g id="surface1">
<path style=" stroke:none;fill-rule:nonzero;fill:rgb(12.156863%,41.960785%,100%);fill-opacity:1;" d="M 20.789062 48.421875 L 3.949219 48.421875 C 2.640625 48.421875 1.578125 47.359375 1.578125 46.050781 C 1.578125 44.746094 2.640625 43.683594 3.949219 43.683594 L 9.246094 43.683594 C 9.726562 43.683594 10.183594 43.496094 10.519531 43.15625 C 10.863281 42.808594 11.054688 42.34375 11.054688 41.851562 L 11.054688 41.84375 C 11.054688 40.535156 12.113281 39.472656 13.421875 39.472656 L 16.578125 39.472656 C 17.015625 39.472656 17.367188 39.121094 17.367188 38.683594 C 17.367188 38.25 17.015625 37.894531 16.578125 37.894531 L 13.421875 37.894531 C 11.246094 37.894531 9.472656 39.664062 9.472656 41.84375 L 9.472656 41.855469 C 9.472656 41.953125 9.429688 42.015625 9.402344 42.042969 C 9.359375 42.082031 9.304688 42.105469 9.246094 42.105469 L 3.949219 42.105469 C 1.769531 42.105469 0 43.875 0 46.050781 C 0 48.230469 1.769531 50 3.949219 50 L 20.789062 50 C 21.226562 50 21.578125 49.648438 21.578125 49.210938 C 21.578125 48.773438 21.226562 48.421875 20.789062 48.421875 M 47.105469 11.578125 L 43.507812 11.578125 C 43.210938 10.957031 42.574219 10.527344 41.84375 10.527344 L 36.578125 10.527344 C 35.84375 10.527344 35.210938 10.957031 34.914062 11.578125 L 31.316406 11.578125 C 30.878906 11.578125 30.527344 11.933594 30.527344 12.367188 C 30.527344 12.804688 30.878906 13.15625 31.316406 13.15625 L 34.738281 13.15625 L 34.738281 13.375 C 34.738281 14.898438 35.859375 16.15625 37.347656 16.300781 C 37.53125 16.320312 37.714844 16.320312 37.894531 16.304688 L 37.894531 19.6875 C 37.894531 21.28125 39.121094 22.574219 40.683594 22.628906 C 41.476562 22.65625 42.230469 22.371094 42.800781 21.820312 C 43.371094 21.269531 43.683594 20.53125 43.683594 19.738281 L 43.683594 19.472656 L 46.246094 19.472656 L 44.855469 35.457031 C 44.828125 35.738281 44.953125 36.015625 45.1875 36.175781 C 45.417969 36.339844 45.71875 36.367188 45.976562 36.246094 C 46.230469 36.125 46.40625 35.875 46.425781 35.59375 L 47.835938 19.378906 C 49.078125 19.054688 50 17.921875 50 16.578125 L 50 14.472656 C 50 12.878906 48.703125 11.578125 47.105469 11.578125 M 42.105469 12.367188 L 42.105469 19.738281 C 42.105469 20.097656 41.960938 20.433594 41.703125 20.683594 C 41.445312 20.933594 41.101562 21.0625 40.742188 21.050781 C 40.042969 21.027344 39.472656 20.414062 39.472656 19.6875 L 39.472656 15.242188 C 39.472656 14.960938 39.324219 14.699219 39.078125 14.558594 C 38.832031 14.417969 38.53125 14.417969 38.289062 14.558594 C 38.050781 14.699219 37.773438 14.757812 37.5 14.730469 C 36.835938 14.664062 36.316406 14.070312 36.316406 13.375 L 36.316406 12.367188 C 36.316406 12.222656 36.433594 12.105469 36.578125 12.105469 L 41.84375 12.105469 C 41.988281 12.105469 42.105469 12.222656 42.105469 12.367188 Z M 48.421875 16.578125 C 48.421875 17.300781 47.835938 17.890625 47.109375 17.894531 L 43.683594 17.894531 L 43.683594 13.15625 L 47.105469 13.15625 C 47.832031 13.15625 48.421875 13.75 48.421875 14.472656 Z M 48.421875 16.578125 "/>
<path style=" stroke:none;fill-rule:nonzero;fill:rgb(12.156863%,41.960785%,100%);fill-opacity:1;" d="M 35.527344 19.472656 C 35.960938 19.472656 36.316406 19.121094 36.316406 18.683594 C 36.316406 18.25 35.960938 17.894531 35.527344 17.894531 L 31.316406 17.894531 C 30.878906 17.894531 30.527344 18.25 30.527344 18.683594 C 30.527344 19.121094 30.878906 19.472656 31.316406 19.472656 Z M 35.527344 19.472656 "/>
<path style=" stroke:none;fill-rule:nonzero;fill:rgb(12.156863%,41.960785%,100%);fill-opacity:1;" d="M 48.742188 40.359375 C 47.144531 37.628906 44.175781 35.789062 40.789062 35.789062 L 34.472656 35.789062 C 33.75 35.789062 33.15625 35.199219 33.15625 34.472656 L 33.15625 33.421875 C 33.15625 33.136719 33.117188 32.859375 33.035156 32.589844 C 33.75 32.0625 34.210938 31.214844 34.210938 30.261719 C 34.210938 28.667969 32.910156 27.367188 31.316406 27.367188 L 30 27.367188 L 30 27.105469 C 30 26.371094 29.570312 25.738281 28.949219 25.441406 L 28.949219 2.894531 C 28.949219 1.296875 27.648438 0 26.050781 0 C 24.457031 0 23.15625 1.296875 23.15625 2.894531 L 23.15625 11.578125 L 13.421875 11.578125 C 11.824219 11.578125 10.527344 12.878906 10.527344 14.472656 L 10.527344 16.578125 C 10.527344 17.921875 11.445312 19.054688 12.6875 19.378906 L 14.097656 35.59375 C 14.136719 36.03125 14.519531 36.351562 14.953125 36.3125 C 15.386719 36.273438 15.710938 35.890625 15.671875 35.457031 L 14.28125 19.472656 L 23.15625 19.472656 L 23.15625 25.441406 C 22.535156 25.738281 22.105469 26.371094 22.105469 27.105469 L 22.105469 27.367188 L 20.789062 27.367188 C 19.191406 27.367188 17.894531 28.667969 17.894531 30.261719 C 17.894531 31.214844 18.355469 32.0625 19.070312 32.589844 C 18.988281 32.859375 18.949219 33.140625 18.949219 33.421875 L 18.949219 40.789062 C 18.949219 45.867188 23.078125 50 28.15625 50 L 48.15625 50 C 49.171875 50 50 49.171875 50 48.15625 L 50 45 C 50 43.335938 49.558594 41.777344 48.785156 40.429688 C 48.773438 40.40625 48.757812 40.382812 48.742188 40.359375 M 24.738281 2.894531 C 24.738281 2.167969 25.328125 1.578125 26.050781 1.578125 C 26.777344 1.578125 27.367188 2.167969 27.367188 2.894531 L 27.367188 25.261719 L 24.738281 25.261719 Z M 13.429688 17.894531 L 13.414062 17.894531 C 12.691406 17.890625 12.105469 17.300781 12.105469 16.578125 L 12.105469 14.472656 C 12.105469 13.746094 12.695312 13.15625 13.421875 13.15625 L 23.15625 13.15625 L 23.15625 17.894531 Z M 48.421875 48.15625 C 48.421875 48.304688 48.304688 48.421875 48.15625 48.421875 L 36.578125 48.421875 C 32.371094 48.421875 28.949219 44.996094 28.949219 40.789062 L 28.949219 35.527344 C 28.949219 35.089844 28.59375 34.738281 28.15625 34.738281 C 27.722656 34.738281 27.367188 35.089844 27.367188 35.527344 L 27.367188 40.789062 C 27.367188 43.917969 28.933594 46.683594 31.324219 48.351562 C 27.609375 47.839844 24.738281 44.644531 24.738281 40.789062 L 24.738281 35.527344 C 24.738281 35.089844 24.382812 34.738281 23.949219 34.738281 C 23.511719 34.738281 23.15625 35.089844 23.15625 35.527344 L 23.15625 40.789062 C 23.15625 43.917969 24.722656 46.683594 27.113281 48.351562 C 23.398438 47.839844 20.527344 44.644531 20.527344 40.789062 L 20.527344 33.421875 C 20.527344 33.328125 20.535156 33.238281 20.554688 33.148438 C 20.632812 33.15625 20.710938 33.15625 20.789062 33.15625 L 27.105469 33.15625 C 27.542969 33.15625 27.894531 32.804688 27.894531 32.367188 C 27.894531 31.933594 27.542969 31.578125 27.105469 31.578125 L 20.789062 31.578125 C 20.0625 31.578125 19.472656 30.988281 19.472656 30.261719 C 19.472656 29.539062 20.0625 28.949219 20.789062 28.949219 L 22.894531 28.949219 C 23.332031 28.949219 23.683594 28.59375 23.683594 28.15625 L 23.683594 27.105469 C 23.683594 26.960938 23.800781 26.84375 23.949219 26.84375 L 28.15625 26.84375 C 28.304688 26.84375 28.421875 26.960938 28.421875 27.105469 L 28.421875 28.15625 C 28.421875 28.59375 28.773438 28.949219 29.210938 28.949219 L 31.316406 28.949219 C 32.042969 28.949219 32.632812 29.539062 32.632812 30.261719 C 32.632812 30.988281 32.042969 31.578125 31.316406 31.578125 L 30.261719 31.578125 C 29.828125 31.578125 29.472656 31.933594 29.472656 32.367188 C 29.472656 32.804688 29.828125 33.15625 30.261719 33.15625 L 31.316406 33.15625 C 31.394531 33.15625 31.472656 33.15625 31.550781 33.148438 C 31.570312 33.238281 31.578125 33.328125 31.578125 33.421875 L 31.578125 34.472656 C 31.578125 36.070312 32.878906 37.367188 34.472656 37.367188 L 40.789062 37.367188 C 43.085938 37.367188 45.148438 38.390625 46.550781 40 L 36.578125 40 C 35.285156 40 34.007812 39.671875 32.882812 39.046875 C 32.5 38.835938 32.019531 38.972656 31.808594 39.355469 C 31.597656 39.734375 31.734375 40.214844 32.117188 40.425781 C 33.472656 41.179688 35.015625 41.578125 36.578125 41.578125 L 47.609375 41.578125 C 48.023438 42.402344 48.285156 43.292969 48.378906 44.210938 L 36.578125 44.210938 C 35.285156 44.210938 34.007812 43.878906 32.882812 43.257812 C 32.5 43.046875 32.019531 43.183594 31.808594 43.5625 C 31.597656 43.945312 31.734375 44.425781 32.117188 44.636719 C 33.472656 45.390625 35.015625 45.789062 36.578125 45.789062 L 48.421875 45.789062 Z M 48.421875 48.15625 "/>
</g>
</svg>
