<?xml version="1.0" encoding="UTF-8"?>
<svg xmlns="http://www.w3.org/2000/svg" xmlns:xlink="http://www.w3.org/1999/xlink" width="50px" height="50px" viewBox="0 0 50 50" version="1.1">
<g id="surface1">
<path style=" stroke:none;fill-rule:nonzero;fill:rgb(12.156863%,41.960785%,100%);fill-opacity:1;" d="M 49.160156 22.761719 L 41.582031 15.183594 L 41.582031 6.429688 C 41.582031 4.847656 40.300781 3.5625 38.714844 3.5625 C 37.132812 3.5625 35.851562 4.847656 35.851562 6.429688 L 35.851562 9.453125 L 30.210938 3.808594 C 27.417969 1.019531 22.570312 1.027344 19.785156 3.8125 L 0.839844 22.761719 C -0.28125 23.882812 -0.28125 25.695312 0.839844 26.8125 C 1.957031 27.933594 3.773438 27.933594 4.894531 26.8125 L 23.839844 7.867188 C 24.457031 7.253906 25.542969 7.253906 26.15625 7.863281 L 45.105469 26.8125 C 45.644531 27.351562 46.371094 27.652344 47.132812 27.652344 C 47.867188 27.652344 48.601562 27.375 49.160156 26.8125 C 50.28125 25.695312 50.28125 23.882812 49.160156 22.761719 "/>
<path style=" stroke:none;fill-rule:nonzero;fill:rgb(12.156863%,41.960785%,100%);fill-opacity:1;" d="M 25.996094 13.304688 C 25.445312 12.757812 24.554688 12.757812 24.003906 13.304688 L 7.339844 29.96875 C 7.074219 30.230469 6.925781 30.589844 6.925781 30.964844 L 6.925781 43.117188 C 6.925781 45.96875 9.238281 48.28125 12.089844 48.28125 L 20.339844 48.28125 L 20.339844 35.5 L 29.65625 35.5 L 29.65625 48.28125 L 37.910156 48.28125 C 40.757812 48.28125 43.070312 45.96875 43.070312 43.117188 L 43.070312 30.964844 C 43.070312 30.589844 42.925781 30.230469 42.660156 29.96875 Z M 25.996094 13.304688 "/>
</g>
</svg>
