<?xml version="1.0" encoding="UTF-8"?>
<svg xmlns="http://www.w3.org/2000/svg" xmlns:xlink="http://www.w3.org/1999/xlink" width="50px" height="50px" viewBox="0 0 50 50" version="1.1">
<g id="surface1">
<path style=" stroke:none;fill-rule:nonzero;fill:rgb(12.156863%,41.960785%,100%);fill-opacity:1;" d="M 7.835938 17.226562 C 10.171875 15.414062 12.105469 16.664062 14.6875 19.652344 C 14.976562 19.988281 15.367188 19.59375 15.589844 19.402344 C 15.8125 19.210938 19.21875 16.140625 19.386719 16 C 19.550781 15.851562 19.75 15.578125 19.488281 15.269531 C 18.855469 14.488281 18.234375 13.695312 17.628906 12.890625 C 13.109375 6.980469 29.996094 2.96875 27.402344 2.90625 C 26.082031 2.871094 20.789062 2.808594 19.996094 2.898438 C 16.789062 3.234375 12.761719 6.234375 10.734375 7.628906 C 8.078125 9.445312 7.089844 10.511719 6.925781 10.65625 C 6.175781 11.3125 6.808594 12.824219 5.449219 14.015625 C 4.011719 15.273438 3.113281 14.324219 2.28125 15.050781 C 1.867188 15.417969 0.710938 16.28125 0.382812 16.570312 C 0.0507812 16.863281 -0.0117188 17.355469 0.328125 17.746094 C 0.328125 17.746094 3.488281 21.238281 3.753906 21.546875 C 4.015625 21.851562 4.734375 22.117188 5.171875 21.726562 C 5.613281 21.335938 6.753906 20.34375 6.941406 20.167969 C 7.136719 20.003906 6.816406 18.015625 7.835938 17.226562 M 22.109375 18.515625 C 21.808594 18.171875 21.433594 18.160156 21.113281 18.445312 L 17.53125 21.574219 L 38.199219 46.171875 C 38.683594 46.730469 39.523438 46.789062 40.074219 46.304688 L 42.5 44.273438 C 43.054688 43.785156 43.113281 42.9375 42.628906 42.378906 Z M 49.753906 8.476562 C 49.570312 7.238281 48.929688 7.496094 48.597656 8.019531 C 48.265625 8.546875 46.796875 10.773438 46.191406 11.785156 C 45.589844 12.785156 44.109375 14.761719 41.355469 12.808594 C 38.484375 10.78125 39.484375 9.367188 39.984375 8.414062 C 40.484375 7.457031 42.027344 4.773438 42.25 4.441406 C 42.472656 4.101562 42.210938 3.121094 41.324219 3.53125 C 40.429688 3.941406 35.015625 6.09375 34.265625 9.183594 C 33.496094 12.324219 34.90625 15.128906 32.140625 17.917969 L 28.78125 21.417969 L 32.15625 25.332031 L 36.289062 21.40625 C 37.273438 20.417969 39.378906 19.453125 41.285156 19.890625 C 45.367188 20.8125 47.59375 19.28125 48.9375 16.746094 C 50.140625 14.480469 49.941406 9.710938 49.753906 8.476562 M 6.847656 42.632812 C 6.328125 43.15625 6.328125 44.003906 6.847656 44.527344 L 9.226562 46.851562 C 9.746094 47.375 10.570312 47.15625 11.089844 46.632812 L 23.359375 34.574219 L 19.601562 30.289062 Z M 6.847656 42.632812 "/>
</g>
</svg>
